<svg xmlns="http://www.w3.org/2000/svg" width="36.241" height="36.26" viewBox="0 0 36.241 36.26">
    <path fill="#3131ff" d="M14.792 6.132c9.123 14.737 14.792.474 14.792 8.643a14.792 14.792 0 0 1-29.584 0C0 6.606 5.669-8.6 14.792 6.132z" opacity="0.1" transform="rotate(14.98 3.65 29.07)"/>
    <g>
        <g>
            <path fill="#3131ff" d="M13.648 2.343L12.521 3.47A6.4 6.4 0 1 1 7.2 1.655V3.27a4.8 4.8 0 1 0 4.19 1.335l-1.132 1.128A3.206 3.206 0 1 1 7.2 4.909V6.62A1.583 1.583 0 0 0 6.4 8a1.6 1.6 0 1 0 3.2 0 1.573 1.573 0 0 0-.8-1.38V0H8a8 8 0 1 0 5.653 2.343z" transform="translate(10.12 9.661)"/>
        </g>
    </g>
</svg>
