<svg xmlns="http://www.w3.org/2000/svg" width="36.241" height="36.26" viewBox="0 0 36.241 36.26">
    <path fill="#3131ff" d="M14.792 6.132c9.123 14.737 14.792.474 14.792 8.643a14.792 14.792 0 0 1-29.584 0C0 6.606 5.669-8.6 14.792 6.132z" opacity="0.1" transform="rotate(14.98 3.65 29.07)"/>
    <g>
        <g>
            <g>
                <path fill="#3131ff" d="M17.62 13.282a2.22 2.22 0 0 0-2.164-1.7h-.924l-1.063-4.255a2.223 2.223 0 0 0-2.16-1.687h-3.62a2.223 2.223 0 0 0-2.16 1.687l-1.063 4.251h-.923a2.22 2.22 0 0 0-2.165 1.705L0 19h19zM6.969 7.687a.741.741 0 0 1 .72-.562h3.62a.741.741 0 0 1 .72.562L13 11.578H6zm-5.083 9.829l.936-3.885a.74.74 0 0 1 .722-.568h3.312a.741.741 0 0 1 .72.562l.973 3.891zM9.5 15.2c-.508-2.016-.48-1.952-.544-2.135h1.089c-.066.181-.038.114-.545 2.135zm.951 2.318l.973-3.891a.741.741 0 0 1 .72-.562h3.313a.74.74 0 0 1 .721.568l.939 3.885zM10.241 0H8.757v2.969h1.484zM3.833 3.991L2.349 1.42l-1.286.742 1.484 2.571zm14.1-1.829l-1.284-.742-1.484 2.571 1.286.742z" transform="translate(9.119 6.152) translate(.001) translate(-.001)"/>
            </g>
        </g>
    </g>
</svg>
