<svg xmlns="http://www.w3.org/2000/svg" id="Component_37_1" width="36.241" height="36.26" viewBox="0 0 36.241 36.26">
    <defs>
        <style>
            .cls-2{fill:#3131ff}
        </style>
    </defs>
    <path id="Path_7011" fill="#3131ff" d="M14.792 6.132c9.123 14.737 14.792.474 14.792 8.643a14.792 14.792 0 0 1-29.584 0C0 6.606 5.669-8.6 14.792 6.132z" opacity="0.1" transform="rotate(14.98 3.65 29.07)"/>
    <g id="Group_8310" transform="translate(-748.598 -42.538)">
        <path id="Path_6572" d="M76.561-511.8a9.4 9.4 0 0 0-5.146 2.055 9 9 0 0 0-1.227 1.223c.008.019.292.266.638.555s.653.547.687.577c.053.046.106 0 .437-.334a7.371 7.371 0 0 1 4.356-2.18 7.4 7.4 0 0 1 6.217 2.15l.4.4.68-.577c.376-.319.687-.6.695-.619a9.559 9.559 0 0 0-1.375-1.325 9.237 9.237 0 0 0-5.738-1.941c-.267.006-.552.016-.624.016z" class="cls-2" transform="translate(689.812 559.504)"/>
        <path id="Path_6573" d="M143.418-413.874a5.774 5.774 0 0 0-2.309 1 6.05 6.05 0 0 0-1.109 1.112 6.766 6.766 0 0 0 .722.585l.722.539.254-.273a3.686 3.686 0 0 1 3.714-1.06 3.682 3.682 0 0 1 1.713 1.048l.266.281.722-.539c.395-.3.725-.543.733-.551a4.428 4.428 0 0 0-.676-.756 5.426 5.426 0 0 0-2.871-1.405 6.923 6.923 0 0 0-1.881.019z" class="cls-2" transform="translate(622.651 465.354)"/>
        <path id="Path_6574" d="M136.948-292.6a2.785 2.785 0 0 0-2.362 2.013l-.087.285v3.209c0 3.623-.011 3.467.3 4.064a2.8 2.8 0 0 0 1.709 1.413 10.044 10.044 0 0 0 2.605.087 10.044 10.044 0 0 0 2.605-.087 2.8 2.8 0 0 0 1.709-1.413c.311-.6.3-.441.3-4.064v-3.207l-.087-.285a2.791 2.791 0 0 0-1.549-1.789c-.516-.235-.52-.235-2.807-.247-1.147-.007-2.199.001-2.336.021zm4.284 1.88a.9.9 0 0 1 .562.494l.091.19v2.939c0 2.214-.011 2.977-.046 3.1a1.1 1.1 0 0 1-.589.589c-.114.03-.786.042-2.222.034-2.279-.011-2.157 0-2.415-.262-.27-.277-.254-.065-.266-3.388-.008-2.958-.008-2.993.068-3.175a.9.9 0 0 1 .539-.5 9.262 9.262 0 0 1 2.142-.072 12.586 12.586 0 0 1 2.136.05z" class="cls-2" transform="translate(627.944 348.639)"/>
        <path id="Path_6575" d="M226.991-151.964a1.311 1.311 0 0 0-.6.551 1.488 1.488 0 0 0 0 1.025 1.445 1.445 0 0 0 .524.524 1.488 1.488 0 0 0 1.025 0 1.389 1.389 0 0 0 .524-.524 1.355 1.355 0 0 0 .03-.934 1.169 1.169 0 0 0-1.503-.642z" class="cls-2" transform="translate(539.629 213.395)"/>
    </g>
</svg>
