<svg xmlns="http://www.w3.org/2000/svg" width="36.241" height="36.26" viewBox="0 0 36.241 36.26">
    <path fill="#3131ff" d="M14.792 6.132c9.123 14.737 14.792.474 14.792 8.643a14.792 14.792 0 0 1-29.584 0C0 6.606 5.669-8.6 14.792 6.132z" opacity="0.1" transform="rotate(14.98 3.65 29.07)"/>
    <path fill="#3131ff" d="M16.013 13.5l-1.022 1.022.79.79h-3.448l4.722-4.722v1.91l1.445 1.449V2.02A2.023 2.023 0 0 0 16.48 0H4.515L5.96 1.445h1.982L3.184 6.2V2.756l.79.79L5 2.523 2.5.026 0 2.523l1.022 1.022.717-.717v11.913a2.023 2.023 0 0 0 2.02 2.02h11.949l-.717.717 1.022 1.022 2.5-2.5zm-5.723 1.816H8.269l8.786-8.786v2.02zm-7.106-3.06L13.995 1.445h2.038L3.184 14.294zm13.871-9.789v2.02L6.226 15.316h-2.02zm-7.07-1.022h1.966l-8.767 8.767V8.246zm0 0" transform="translate(9.12 7.152)"/>
</svg>
