<svg xmlns="http://www.w3.org/2000/svg" width="944.7" height="392.448" viewBox="0 0 944.7 392.448">
    <defs>
        <style>
            .cls-2{fill:#efefef}.cls-3{fill:#3f3d56}.cls-4{fill:#3131ff}.cls-5{fill:#2f2e41}.cls-6{fill:#a0616a}.cls-7{fill:#d0cde1}
        </style>
    </defs>
    <g id="Group_8332" transform="translate(-891 -459.824)">
        <path id="Path_7231" fill="#efefef" d="M1188.986 544.964h-944.7V370.9h785.806z" opacity="0.5" transform="translate(646.714 209.749)"/>
        <g id="Group_8329" transform="translate(1049.778 459.824)">
            <path id="Path_7200" d="M114.774 153.939H27V96.205h80.682z" class="cls-2" transform="translate(-14.327 -51.048)"/>
            <circle id="Ellipse_845" cx="7.979" cy="7.979" r="7.979" class="cls-3" transform="translate(58.438 54.94)"/>
            <path id="Path_7201" d="M314.45 90.531c.757-.858 1.54-1.713 2.329-2.539l.826.789c-.779.816-1.552 1.659-2.3 2.505z" class="cls-3" transform="translate(-225.76 -61.688)"/>
            <path id="Path_7202" d="M330.181 53.384c1.745-1.548 3.575-3.041 5.439-4.438l.685.913c-1.839 1.378-3.645 2.851-5.366 4.378zm11.227-8.409c1.975-1.238 4.026-2.408 6.1-3.478l.524 1.015c-2.043 1.056-4.067 2.21-6.015 3.431zm12.462-6.439c2.148-.893 4.364-1.709 6.585-2.426l.351 1.087c-2.192.707-4.378 1.512-6.5 2.394zm13.609-3.2l-.261-1.111c2.272-.535 4.59-.981 6.89-1.327l.17 1.129c-2.27.344-4.557.784-6.799 1.311zm13.681-2.057l-.076-1.139c2.325-.156 4.686-.216 7.015-.179l-.019 1.139c-2.3-.037-4.627.023-6.921.176zm13.833.222l.113-1.136c2.32.23 4.659.562 6.954.984l-.207 1.123c-2.263-.417-4.571-.743-6.86-.971zm42.791 150.436c1.824-1.4 3.613-2.889 5.318-4.434l.767.846c-1.728 1.567-3.542 3.079-5.39 4.494zM408.608 36.008l.3-1.1c2.249.61 4.5 1.321 6.695 2.115l-.388 1.073c-2.167-.784-4.389-1.486-6.607-2.088zm39.427 138.638c1.57-1.679 3.09-3.445 4.517-5.248l.9.709c-1.447 1.828-2.988 3.617-4.579 5.318zM421.623 40.717l.475-1.038c2.12.97 4.225 2.04 6.257 3.18l-.558 1c-2.005-1.13-4.082-2.185-6.174-3.142zm35 123.081c1.276-1.914 2.487-3.9 3.6-5.916l1 .553c-1.129 2.038-2.357 4.056-3.649 6zM433.694 47.486l.638-.947c1.932 1.3 3.835 2.7 5.654 4.157l-.713.891c-1.796-1.436-3.673-2.816-5.579-4.101zm29.635 104.205c.946-2.1 1.816-4.258 2.587-6.425l1.076.383c-.781 2.2-1.663 4.386-2.622 6.512zm-18.834-95.558l.784-.83c1.694 1.6 3.342 3.293 4.9 5.026l-.85.762c-1.538-1.71-3.163-3.378-4.834-4.958zm23.471 82.518c.59-2.226 1.094-4.5 1.5-6.762l1.124.2c-.409 2.292-.92 4.6-1.518 6.854zM453.728 66.43l.91-.69c1.407 1.857 2.752 3.8 4 5.761l-.964.611c-1.231-1.938-2.559-3.85-3.946-5.682zm16.67 58.6c.215-2.289.336-4.616.361-6.917l1.141.012c-.025 2.332-.148 4.691-.366 7.011zm-9.262-46.918l1.012-.529c1.08 2.062 2.087 4.2 2.995 6.346l-1.052.444c-.9-2.12-1.889-4.227-2.955-6.261zm9.408 33.079c-.166-2.289-.43-4.6-.785-6.88l1.128-.176c.36 2.307.628 4.653.8 6.973zm-4.025-20.334l1.081-.357c.727 2.21 1.373 4.489 1.919 6.751l-1.11.268c-.538-2.234-1.176-4.48-1.893-6.662z" class="cls-3" transform="translate(-234.108 -31.952)"/>
            <path id="Path_7203" d="M541.012 366.106c.975-.57 1.951-1.167 2.9-1.776l.616.961c-.964.617-1.953 1.223-2.941 1.8z" class="cls-3" transform="translate(-345.978 -208.318)"/>
            <path id="Path_7204" d="M27 144.906l17.493-17.493 15.833 15.833 30.04-30.04 24.643 25.112v24.643H27z" class="cls-4" transform="translate(-14.327 -60.069)"/>
            <path id="Path_7205" d="M762.5 555.158v113.121h145.508V555.158zm126.507 30.251h-11.27V574.14h11.27z" class="cls-3" transform="translate(-463.504 -309.575)"/>
            <path id="Rectangle_7735" d="M0 0H9.388V12.204H0z" class="cls-3" transform="translate(63.367 200.992)"/>
            <path id="Rectangle_7736" d="M0 0H9.388V12.204H0z" class="cls-3" transform="rotate(45 -225.415 394.818)"/>
            <path id="Rectangle_7737" d="M0 0H9.388V12.204H0z" class="cls-3" transform="rotate(45 17.973 254.84)"/>
            <path id="Path_7206" d="M782.539 717.815c-.52 1.019-1.066 2.042-1.625 3.038l-1-.559c.552-.984 1.092-1.992 1.6-3z" class="cls-3" transform="translate(-472.746 -395.609)"/>
            <path id="Path_7207" d="M598.072 624.054c-1.306 1.933-2.707 3.834-4.167 5.65l-.89-.715c1.439-1.792 2.822-3.667 4.11-5.574zm-8.787 10.934c-1.605 1.689-3.3 3.332-5.042 4.883l-.76-.852c1.717-1.53 3.391-3.151 4.975-4.817zm-10.472 9.332c-1.859 1.4-3.8 2.74-5.776 3.986l-.61-.966c1.948-1.229 3.865-2.552 5.7-3.932zm-12.388 6.48l.529 1.011c-2.068 1.082-4.2 2.09-6.344 3l-.445-1.052c2.113-.9 4.219-1.894 6.26-2.959zm-12.741 5.391l.357 1.084c-2.214.728-4.485 1.373-6.751 1.916l-.266-1.11c2.235-.539 4.476-1.175 6.66-1.893zm-13.454 3.221l.173 1.128c-2.3.353-4.653.613-6.98.774l-.079-1.139c2.3-.158 4.613-.415 6.886-.763zm-78.813-135.098c-1.419 1.806-2.782 3.7-4.05 5.616l-.953-.629c1.285-1.947 2.666-3.862 4.1-5.692zm65 136.049l-.017 1.137c-2.33-.032-4.688-.162-7.01-.386l.11-1.136c2.293.222 4.62.353 6.918.385zm-72.624-124.5c-1.1 2.016-2.137 4.1-3.072 6.205l-1.043-.464c.948-2.13 2-4.246 3.114-6.289zm58.847 123.174l-.2 1.124c-2.294-.414-4.6-.927-6.851-1.527l.294-1.1c2.222.591 4.5 1.1 6.76 1.506zM448.168 548.5c-.76 2.171-1.439 4.4-2.019 6.625l-1.1-.288c.587-2.255 1.276-4.514 2.046-6.714zm51.1 106.973l-.383 1.075c-2.2-.782-4.385-1.664-6.509-2.623l.47-1.041c2.095.949 4.254 1.816 6.421 2.591zM444.68 561.9c-.4 2.266-.7 4.576-.91 6.866l-1.137-.1c.211-2.321.522-4.662.922-6.959zm41.977 87.886l-.554 1c-2.039-1.131-4.055-2.359-5.99-3.652l.634-.949c1.91 1.269 3.899 2.481 5.911 3.597zm-43.231-74.1c-.019 2.3.058 4.632.229 6.922l-1.139.085c-.173-2.322-.251-4.682-.232-7.017zm31.73 66.414l-.71.894c-1.824-1.45-3.609-2.993-5.3-4.587l.782-.832c1.672 1.573 3.429 3.096 5.228 4.525zm-30.7-52.62c.36 2.27.821 4.555 1.368 6.79l-1.109.272c-.555-2.265-1.022-4.581-1.387-6.882zm20.624 43.147l-.848.764c-1.558-1.729-3.064-3.547-4.477-5.4l.909-.692c1.393 1.83 2.879 3.623 4.416 5.33zm-17.329-29.705c.729 2.176 1.56 4.352 2.47 6.469l-1.049.451c-.922-2.145-1.764-4.351-2.5-6.557zm8.949 18.7l-.962.615c-1.253-1.961-2.445-4.007-3.535-6.063l1.009-.535c1.076 2.029 2.252 4.046 3.488 5.982z" class="cls-3" transform="translate(-293.59 -292.834)"/>
            <path id="Path_7208" d="M494.188 507.648c-.8.794-1.6 1.615-2.37 2.441l-.835-.778c.78-.837 1.589-1.67 2.4-2.474z" class="cls-3" transform="translate(-319.432 -283.935)"/>
            <path id="Path_7209" d="M1021.336 432.359c-.108-.176-2.648-4.417-3.528-13.223-.808-8.079-.288-21.7 6.774-40.695 13.38-35.988-3.084-65.025-3.252-65.314l.812-.471a72.074 72.074 0 0 1 6.8 19.265 84.05 84.05 0 0 1-3.481 46.847c-13.357 35.926-3.427 52.934-3.325 53.1z" class="cls-3" transform="translate(-598.823 -180.899)"/>
            <circle id="Ellipse_846" cx="6.102" cy="6.102" r="6.102" class="cls-4" transform="translate(411.178 117.911)"/>
            <circle id="Ellipse_847" cx="6.102" cy="6.102" r="6.102" class="cls-3" transform="translate(430.423 140.442)"/>
            <circle id="Ellipse_848" cx="6.102" cy="6.102" r="6.102" class="cls-4" transform="translate(417.28 155.462)"/>
            <circle id="Ellipse_849" cx="6.102" cy="6.102" r="6.102" class="cls-4" transform="translate(433.239 168.135)"/>
            <circle id="Ellipse_850" cx="6.102" cy="6.102" r="6.102" class="cls-3" transform="translate(412.587 187.849)"/>
            <path id="Path_7210" d="M1032.4 538.443s-6.1-15.02 12.2-26.285z" class="cls-3" transform="translate(-606.198 -286.758)"/>
            <path id="Path_7211" d="M990.074 549.674S987.3 533.7 965.8 533.839z" class="cls-3" transform="translate(-571.38 -298.262)"/>
            <path id="Path_7212" d="M597.616 758.019a5.633 5.633 0 1 1 5.633-5.633 5.632 5.632 0 0 1-5.633 5.633zm0-10.326a4.694 4.694 0 1 0 4.694 4.694 4.694 4.694 0 0 0-4.694-4.694z" class="cls-5" transform="translate(-373.024 -411.239)"/>
            <path id="Path_7213" d="M725.336 116.569h-9.266V107.3h9.266zm-8.553-.713h7.841v-7.841h-7.841z" class="cls-3" transform="translate(-438.867 -71.935)"/>
            <path id="Path_7214" d="M190.31 663.319l-6.32-6.776 6.776-6.32 6.32 6.776zm-5.31-6.741l5.348 5.734 5.734-5.348-5.348-5.734z" class="cls-5" transform="translate(-156.536 -360.018)"/>
            <path id="Path_7215" d="M412.239 438.693H244.286v-67.8h139.7z" class="cls-2" transform="translate(-129.623 -196.804)"/>
            <path id="Path_7216" d="M515.281 454.321H326.017v-83.206h154.942l.131.318zm-188.238-1.027h186.7l-33.475-81.151H327.044z" class="cls-3" transform="translate(-231.898 -211.918)"/>
            <path id="Rectangle_7738" d="M0 0H83.72V7.704H0z" class="cls-4" transform="translate(142.399 184.877)"/>
            <path id="Rectangle_7739" d="M0 0H83.72V7.704H0z" class="cls-4" transform="translate(142.399 200.8)"/>
            <path id="Rectangle_7740" d="M0 0H83.72V7.704H0z" class="cls-4" transform="translate(142.399 216.722)"/>
            <path id="Path_7217" d="M266.048 178.585H125.5V93.158h109.224l.113.308zm-139.609-.939H264.7L234.069 94.1h-107.63z" class="cls-3" transform="translate(-125.5 -64.429)"/>
            <path id="Path_7218" d="M240.213 177.341H151.5v-66.183h88.713zm-87.774-.939h86.836V112.1h-86.836z" class="cls-3" transform="translate(-139.296 -73.98)"/>
            <circle id="Ellipse_851" cx="8.449" cy="8.449" r="8.449" class="cls-4" transform="translate(131.427 105.238)"/>
            <circle id="Ellipse_852" cx="8.449" cy="8.449" r="8.449" class="cls-4" transform="translate(273.18 233.849)"/>
            <circle id="Ellipse_853" cx="14.217" cy="14.217" r="14.217" class="cls-6" transform="translate(328 98.314)"/>
            <path id="Path_7219" d="M830.079 284.868s4.739 10.663-1.777 14.809S838.965 321 838.965 321l18.956-20.141s-10.07-6.516-8.293-17.179z" class="cls-6" transform="translate(-497.637 -165.526)"/>
            <path id="Path_7220" d="M742.934 382.121l-4.146 23.695s-7.108 14.217-7.108 26.657-1.185 14.809-1.185 14.809-11.847 23.695-3.554 24.879 11.847-24.287 11.847-24.287 11.255-27.841 11.255-36.727l7.7-19.548z" class="cls-6" transform="translate(-443.072 -217.758)"/>
            <path id="Path_7221" d="M930.6 384.645l1.185 20.733s4.147 10.663 1.185 29.618l-2.37 18.363s5.331 20.733 0 21.325-11.847-13.032-8.293-20.733v-6.516s-3.554-27.841-2.37-32.58l-4.147-22.51z" class="cls-6" transform="translate(-544.841 -219.097)"/>
            <path id="Path_7222" d="M657.776 698.253l5.924 15.4 13.032-2.369-8.294-16.584z" class="cls-6" transform="translate(-349.028 -368.62)"/>
            <path id="Path_7223" d="M775.658 728.773l-1.777 22.51h14.809l-.592-19.548z" class="cls-6" transform="translate(-410.635 -386.7)"/>
            <path id="Path_7224" d="M761.366 470.861l-1.777 8.885s-3.554 2.962-3.554 5.924-1.185 4.147-1.185 4.147-.592 0-1.185 1.185a7.328 7.328 0 0 1-1.185 1.777s-34.95 35.542-27.249 53.313S747.742 600 747.742 600s17.179-5.331 17.179-9.478l-16.586-46.8 33.172-34.357 26.656 36.135s-5.331 63.383-1.777 63.976 23.1 4.739 23.695 2.962 3.554-80.562 2.369-83.524-18.363-38.5-18.363-38.5 2.962-3.554 1.185-4.739-4.739-12.44-4.739-12.44-46.205-7.706-49.167-2.374z" class="cls-5" transform="translate(-443.141 -263.847)"/>
            <path id="Path_7225" d="M820.234 322.46l-11.94-7.364s-7.016.256-8.793 2.033-12.44 6.516-12.44 6.516 2.369 71.084 7.108 68.715 1.185-4.147 4.739-2.369 45.612 2.369 46.2 2.369 1.185-1.185 1.185-1.185l2.369-36.134 7.7-30.211-22.8-10.49z" class="cls-7" transform="translate(-476.537 -181.792)"/>
            <path id="Path_7226" d="M777.225 332.9h-4.739s-6.516 1.777-9.478 11.255-4.147 13.624-2.962 14.809 17.179 10.07 17.179 10.07z" class="cls-7" transform="translate(-461.961 -191.642)"/>
            <path id="Path_7227" d="M912.362 335.426l8.293.592s10.663 24.879 7.7 26.064-20.141 10.07-20.141 8.293 4.148-34.949 4.148-34.949z" class="cls-7" transform="translate(-540.823 -192.981)"/>
            <path id="Path_7228" d="M769.3 748.62l-4.83-1.777-11.164 14.809s-20.733 14.809-1.777 14.217c0 0 14.809-2.37 15.994-6.516 0 0 17.179-4.739 17.179-7.7s-3.947-10.853-5.232-11.053-6.615 2.167-10.17-1.98z" class="cls-5" transform="translate(-453.444 -411.287)"/>
            <path id="Path_7229" d="M910.777 794.725s-14.4-.234-14.309.179-4.054 9.891-3.462 13.445 5.924 8.293 4.739 10.663 3.554 9.478 13.032 10.07 8.293-10.07 8.293-10.07l-4.739-11.255z" class="cls-5" transform="translate(-532.722 -436.659)"/>
            <path id="Path_7230" d="M827.507 232.528a26.922 26.922 0 0 1-2.224 1.7 21.145 21.145 0 0 0-2.681 2.663l-.917 1.026a4.711 4.711 0 0 0-1.575 3.041c.012.434.146.856.2 1.287.208 1.711-.838 3.592.022 5.085.249.432.634.769.908 1.185a2.77 2.77 0 0 1 .438 1.8 2.214 2.214 0 0 0 1.974-1.671 16.842 16.842 0 0 0 .392-2.744 2.944 2.944 0 0 1 1.37-2.292c1.774-.869 3.812 1.391 5.705.828 1.322-.393 2.02-2.032 3.371-2.307a4.8 4.8 0 0 1 2.8.786c.9.407 2.112.6 2.748-.159.421-.5.466-1.3 1.024-1.641.669-.407 1.507.16 2.014.757s1.066 1.328 1.85 1.306c1.039-.029 1.835-1.412 2.821-1.084 1.113.371.6 2.152 1.276 3.111.571.811 1.767.763 2.749.629a.985.985 0 0 0 1.025-1.315l-.41-5.443a2.63 2.63 0 0 0-.241-1.086c-.286-.518-.878-.78-1.28-1.213-.846-.911-.805-2.508-1.858-3.171-.546-.344-1.261-.334-1.8-.684-.7-.449-.92-1.348-1.407-2.017a4.3 4.3 0 0 0-3.092-1.522c-1.177-.122-2.366.025-3.549-.013-2.405-.078-4.81-.755-7.227-.359-2.113.351-2.998 2.141-4.426 3.517z" class="cls-5" transform="translate(-494.007 -136.453)"/>
        </g>
    </g>
</svg>
