<svg xmlns="http://www.w3.org/2000/svg" width="41.676" height="45.544" viewBox="0 0 41.676 45.544">
    <defs>
        <style>
            .cls-2{fill:#394256}
        </style>
    </defs>
    <g id="Group_8327" transform="translate(-304.497 -458.815)">
        <path id="Polygon_33" fill="#335aff" d="M14.244 6.9a5 5 0 0 1 8.512 0L32.3 22.376A5 5 0 0 1 28.042 30H8.958A5 5 0 0 1 4.7 22.376z" opacity="0.1" transform="rotate(68 -173.954 475.745)"/>
        <g id="_4178600" transform="translate(304.28 479.283)">
            <path id="Path_7184" d="M94.679 13.521a.98.98 0 0 0 .2-1.372 8.855 8.855 0 0 1 0-10.581.98.98 0 1 0-1.572-1.176 10.824 10.824 0 0 0 0 12.934.98.98 0 0 0 1.372.2z" class="cls-2" transform="translate(-80.578)"/>
            <path id="Path_7185" d="M361.407 13.521a.98.98 0 0 0 1.372-.2 10.824 10.824 0 0 0 0-12.934.98.98 0 0 0-1.567 1.177 8.854 8.854 0 0 1 0 10.581.98.98 0 0 0 .2 1.372z" class="cls-2" transform="translate(-332.804)"/>
            <path id="Path_7186" d="M154.169 39.549a.98.98 0 0 0 .076-1.384 4.889 4.889 0 0 1 0-6.531.98.98 0 1 0-1.46-1.307 6.867 6.867 0 0 0 0 9.146.98.98 0 0 0 1.384.076z" class="cls-2" transform="translate(-136.546 -28.042)"/>
            <path id="Path_7187" d="M308.412 39.549a.98.98 0 0 0 1.384-.076 6.867 6.867 0 0 0 0-9.146.98.98 0 0 0-1.46 1.307 4.889 4.889 0 0 1 0 6.531.98.98 0 0 0 .076 1.384z" class="cls-2" transform="translate(-283.332 -28.042)"/>
            <path id="Path_7188" fill="#335aff" d="M213.94 65.88a2.939 2.939 0 1 0-2.94-2.94 2.943 2.943 0 0 0 2.94 2.94zm0-3.919a.98.98 0 1 1-.98.98.981.981 0 0 1 .98-.98z" transform="translate(-192.589 -56.082)"/>
        </g>
    </g>
</svg>
