<svg xmlns="http://www.w3.org/2000/svg" width="944.7" height="290.826" viewBox="0 0 944.7 290.826">
    <defs>
        <style>
            .cls-2{fill:#ffb9b9}.cls-3{fill:#f2f2f2}.cls-4{fill:#2f2e41}.cls-5{fill:#3f3d56}.cls-6{fill:#6c63ff}
        </style>
    </defs>
    <g id="Group_8331" transform="translate(-862 -574)">
        <path id="Path_7231" fill="#efefef" d="M1188.986 447.694h-944.7V370.9h785.806z" opacity="0.5" transform="translate(617.714 417.019)"/>
        <g id="Group_8330" transform="translate(997.215 574)">
            <path id="Path_7233" d="M396.674 674.131l-1.148 14.928 11.1 1.148-2.679-17.99z" class="cls-2" transform="translate(-244.13 -414.912)"/>
            <path id="Rectangle_7741" d="M0 0H29.936V54.71H0z" class="cls-3" transform="translate(97.425 15.484)"/>
            <path id="Rectangle_7742" d="M0 0H40.259V54.71H0z" class="cls-3" transform="translate(186.201 195.788)"/>
            <path id="Rectangle_7743" d="M0 0H39.915V60.216H0z" class="cls-3" transform="translate(146.63 111.486)"/>
            <path id="Rectangle_7744" d="M0 0H39.915V60.216H0z" class="cls-3" transform="translate(186.545 33.033)"/>
            <path id="Rectangle_7745" d="M0 0H368.804V0.858H0z" class="cls-4" transform="translate(16.849 289.968)"/>
            <path id="Path_7234" d="M477.924 345.337H299.263v-235.78h178.661zm-177.9-.766h177.13V110.323H300.029z" class="cls-5" transform="translate(-202.221 -94.456)"/>
            <path id="Path_7235" d="M501.452 345.892h-103.3V110.457h103.3zm-102.539-.766h101.774v-233.9H398.913z" class="cls-5" transform="translate(-263.255 -95.011)"/>
            <path id="Path_7236" d="M477.924 391.938H299.263V312.72h178.661zm-177.9-.766h177.13v-77.687H300.029z" class="cls-5" transform="translate(-202.221 -219.854)"/>
            <circle id="Ellipse_854" cx="11.355" cy="11.355" r="11.355" class="cls-6" transform="translate(123.92 81.894)"/>
            <circle id="Ellipse_855" cx="11.355" cy="11.355" r="11.355" class="cls-6" transform="translate(226.46 5.505)"/>
            <path id="Rectangle_7746" d="M0 0H0.766V234.67H0z" class="cls-5" transform="translate(185.99 15.828)"/>
            <path id="Path_7237" d="M842.328 693.7a85.914 85.914 0 0 1 3.762 33.833 81.623 81.623 0 0 1-21-63.189 85.913 85.913 0 0 1 17.238 29.356z" class="cls-6" transform="translate(-526.564 -436.887)"/>
            <path id="Path_7238" d="M883.708 693.7a85.913 85.913 0 0 0-3.762 33.833 81.623 81.623 0 0 0 21-63.189 85.912 85.912 0 0 0-17.238 29.356z" class="cls-6" transform="translate(-560.421 -436.887)"/>
            <path id="Path_7239" d="M873.519 688.1a85.911 85.911 0 0 1-6.393 33.435 81.623 81.623 0 0 1-1.407-66.571 85.912 85.912 0 0 1 7.8 33.136z" class="cls-5" transform="translate(-547.897 -431.097)"/>
            <path id="Path_7240" d="M295.357 390.824c9.462 2.916 14.509 13.792 11.273 24.292l-4.111 13.341-4.1-1.264-.852-5.675-.929 5.126-26.373-8.127-.775-5.159-.845 4.66-2.969-.915 3.228-10.475c3.72-12.084 15.565-19.159 26.453-15.804z" class="cls-4" transform="translate(-181.487 -267.548)"/>
            <path id="Path_7241" d="M293.163 496.644a6.213 6.213 0 0 0-7.216 5.715c-.165 2.313.633 5.021 4.219 7.026 7.658 4.283 24.266 13.621 24.266 13.621l31.687 6.086s16.013 12.777 18.019 5.51-15.194-11.7-15.194-11.7l-29.111-7.466-18.55-13.417s-3.399-4.542-8.12-5.375z" class="cls-2" transform="translate(-193.989 -333.325)"/>
            <path id="Path_7242" d="M232.636 500.72l3.185 8.976 19.11-4.632-4.922-6.659z" class="cls-2" transform="translate(-143.59 -307.629)"/>
            <path id="Path_7243" d="M75.781 706.746L61.3 705.3l10.134-9.844 7.239 4.922z" class="cls-2" transform="translate(-37.839 -429.254)"/>
            <circle id="Ellipse_856" cx="11.89" cy="11.89" r="11.89" class="cls-2" transform="translate(98.633 129.536)"/>
            <path id="Path_7244" d="M279.277 444.454s-6.659 7.818-10.134 8.976-12.161 12.161-7.818 19.4 20.268-1.737 20.268-1.737l-.579-7.239s6.659-11.582 8.107-12.45-9.844-6.95-9.844-6.95z" class="cls-2" transform="translate(-178.07 -301.164)"/>
            <path id="Path_7245" fill="#575a89" d="M277.82 473.946c-4.427-6.665-14.7-5.473-17.243 2.113q-.068.2-.13.412c-2.316 7.818 1.158 21.136 1.158 21.136l5.212 15.635s13.608-6.37 23.453 4.343l-1.448-11s4.054-9.265-1.158-15.925c-3.317-4.241-6.399-11.528-9.844-16.714z" transform="translate(-177.771 -316.676)"/>
            <path id="Path_7246" d="M216.3 587.992s-6.949-9.265-21.136-3.764l-2.606 7.239s-15.056 11.871-6.659 30.112l-.579 27.217-2.32 7.817-41.983-3.474-1.448 13.319 7.528.579s42.562 16.793 49.222 6.37 20.557-51.538 20.557-51.538l36.05 5.4s-1.055 11.282.1 12.73.579 7.528 1.158 8.686.1 4.169.1 4.169l11.961-.4v-5.791s1.448-7.818 1.448-9.844 8.686-28.664-6.37-30.981-40.972-6.556-40.972-6.556z" class="cls-4" transform="translate(-103.652 -386.359)"/>
            <path id="Path_7247" d="M77.309 760.675l-.579 4.343s-19.11-3.764-23.163-.289-4.054 5.791-7.239 3.474c-1.354-.984-.2-3.381 1.581-5.811a29.254 29.254 0 0 1 10.781-8.952c4.778-2.34 11.38-5.739 11.38-6.663 0-1.448 5.212-5.791 7.239-3.474a86.207 86.207 0 0 1 5.791 8.686z" class="cls-4" transform="translate(-45.737 -485.21)"/>
            <path id="Path_7248" d="M434.694 768.322s-4.244 15.047-2.7 15.819 4.63 3.087 9.26 3.087c2.736 0 6.819 1.482 9.7 2.694a23.386 23.386 0 0 0 10.659 1.834c2.43-.167 4.5-.737 4.332-2.213-.386-3.472-7.716-4.244-7.716-4.244l-7.716-10.031S449.162 768.9 448 768.9a2.535 2.535 0 0 1-1.736-.579z" class="cls-4" transform="translate(-283.937 -501.064)"/>
            <path id="Path_7249" d="M281.429 471.294a7.178 7.178 0 0 0-9.944-3.771c-2.392 1.207-4.6 3.6-4.469 8.348.29 10.134.869 32.139.869 32.139l12.74 35.034s-3.185 23.453 5.212 21.136 2.606-22.005 2.606-22.005l-9.844-33.3 2.316-26.348s2.485-6.057.514-11.233z" class="cls-2" transform="translate(-182.313 -314.919)"/>
            <path id="Path_7250" d="M298.013 399a9.4 9.4 0 0 1 8.2-1.433l.336.1c6.485 2 9.934 9.487 7.7 16.726l-2.173-.67.472-2.779-1.338 2.513-12.888-3.972-.383-2.593-.426 2.343-2.535-.781q-4.491 8.267-.332 19.2l-4.319-1.331-.767-5.185-.853 4.686-8.233-2.537 1.584-10.895c2.407-7.779 8.964-12.987 15.955-13.392z" class="cls-4" transform="translate(-190.628 -271.991)"/>
            <circle id="Ellipse_857" cx="34.753" cy="34.753" r="34.753" class="cls-6" transform="translate(151.792 136.948)"/>
            <path id="Path_7251" d="M655.636 180.358l-.281-.712-66.289 26.137-63.392-72.506 78.693-31.028-.281-.712-78.947 31.128-19.579-22.393 3.228-1.257a23.116 23.116 0 0 1-7.047-2.53 23.136 23.136 0 0 1 1.566 7.322l1.677-3.031 19.4 22.188L404 180.43l-.1-3.463a23.116 23.116 0 0 1-4.752 5.787 23.135 23.135 0 0 1 7.423.987l-2.291-2.6 120.639-47.567 63.392 72.506-133.043 52.459-.1-3.462a23.118 23.118 0 0 1-4.752 5.786 23.136 23.136 0 0 1 7.423.987l-2.291-2.6 133.3-52.558 57.706 66 .576-.5L589.6 206.4z" class="cls-5" transform="translate(-263.872 -89.506)"/>
            <path id="Rectangle_7747" d="M0 0H65.377V25.119H0z" class="cls-5" transform="translate(358.935 78.109)"/>
            <path id="Rectangle_7748" d="M0 0H42.323V2.065H0z" class="cls-3" transform="translate(370.462 84.818)"/>
            <path id="Rectangle_7749" d="M0 0H42.323V2.065H0z" class="cls-3" transform="translate(370.462 89.636)"/>
            <path id="Rectangle_7750" d="M0 0H42.323V2.065H0z" class="cls-3" transform="translate(370.462 94.453)"/>
            <path id="Rectangle_7751" d="M0 0H65.377V25.119H0z" class="cls-5" transform="translate(307.665)"/>
            <path id="Rectangle_7752" d="M0 0H42.323V2.065H0z" class="cls-3" transform="translate(319.192 6.71)"/>
            <path id="Rectangle_7753" d="M0 0H42.323V2.065H0z" class="cls-3" transform="translate(319.192 11.527)"/>
            <path id="Rectangle_7754" d="M0 0H42.323V2.065H0z" class="cls-3" transform="translate(319.192 16.344)"/>
            <path id="Rectangle_7755" d="M0 0H65.377V25.119H0z" class="cls-5" transform="translate(350.332 170.325)"/>
            <path id="Rectangle_7756" d="M0 0H42.323V2.065H0z" class="cls-3" transform="translate(361.859 177.035)"/>
            <path id="Rectangle_7757" d="M0 0H42.323V2.065H0z" class="cls-3" transform="translate(361.859 181.852)"/>
            <path id="Rectangle_7758" d="M0 0H42.323V2.065H0z" class="cls-3" transform="translate(361.859 186.669)"/>
        </g>
    </g>
</svg>
