<svg xmlns="http://www.w3.org/2000/svg" id="Component_36_1" width="52" height="27.668" viewBox="0 0 52 27.668">
    <defs>
        <style>
            .cls-2{fill:#f22525}
        </style>
    </defs>
    <g id="_758578" transform="translate(-3.843)">
        <g id="Group_8307" transform="translate(7.837)">
            <path id="Path_7174" d="M184.9 135.564a.982.982 0 0 1-1-1v-11.833a1 1 0 0 1 2 0v11.833a.982.982 0 0 1-1 1z" class="cls-2" transform="translate(-172.67 -113.965)"/>
            <path id="Path_7175" d="M238.715 135.538h-.033a1.025 1.025 0 0 1-.967-1.033l.433-11.833a1 1 0 0 1 1.033-.967 1.025 1.025 0 0 1 .967 1.033l-.433 11.833a1.019 1.019 0 0 1-1 .967z" class="cls-2" transform="translate(-223.049 -113.938)"/>
            <path id="Path_7176" d="M124.7 135.538a1.019 1.019 0 0 1-1-.967l-.433-11.833a1 1 0 1 1 2-.067l.433 11.829a.982.982 0 0 1-.967 1.033z" class="cls-2" transform="translate(-115.905 -113.938)"/>
            <path id="Path_7177" d="M31.3 3.833H25V1.667A1.65 1.65 0 0 0 23.337 0H16.8a1.65 1.65 0 0 0-1.667 1.667v2.166h-6.3a1 1 0 1 0 0 2h1.437l1.667 18.8a.986.986 0 0 0 1 .9h14.3a.986.986 0 0 0 1-.9l1.663-18.8h1.47a.982.982 0 0 0 1-1 1.04 1.04 0 0 0-1.07-1zM17.137 2H23v1.833h-5.863zM26.3 23.533H13.8l-1.567-17.7H27.8z" class="cls-2" transform="translate(-7.837)"/>
        </g>
    </g>
</svg>
