<svg xmlns="http://www.w3.org/2000/svg" width="18.79" height="16.158" viewBox="0 0 18.79 16.158">
    <defs>
        <style>
            .cls-1{fill:#6ca7fa}
        </style>
    </defs>
    <g id="_272340" transform="translate(0 -35.857)">
        <g id="Group_7483" transform="translate(0 35.857)">
            <g id="Group_7482">
                <path id="Path_6111" d="M18.547 49.455L10.84 36.673a1.688 1.688 0 0 0-2.891 0L.242 49.455a1.688 1.688 0 0 0 1.446 2.56H17.1a1.688 1.688 0 0 0 1.446-2.56zm-1.041 1.1a.465.465 0 0 1-.4.236H1.687a.465.465 0 0 1-.4-.7L9 37.305a.465.465 0 0 1 .8 0l7.7 12.782a.465.465 0 0 1 .006.468z" class="cls-1" transform="translate(0 -35.857)"/>
            </g>
        </g>
        <g id="Group_7485" transform="translate(8.572 40.89)">
            <g id="Group_7484">
                <path id="Path_6112" d="M234.407 173.005c-.465 0-.829.25-.829.692 0 1.351.159 3.291.159 4.642 0 .352.307.5.67.5.272 0 .658-.148.658-.5 0-1.351.159-3.291.159-4.642a.729.729 0 0 0-.817-.692z" class="cls-1" transform="translate(-233.578 -173.005)"/>
            </g>
        </g>
        <g id="Group_7487" transform="translate(8.538 47.507)">
            <g id="Group_7486">
                <path id="Path_6113" d="M233.525 353.306a.874.874 0 0 0 0 1.748.874.874 0 0 0 0-1.748z" class="cls-1" transform="translate(-232.651 -353.306)"/>
            </g>
        </g>
    </g>
</svg>
