<svg xmlns="http://www.w3.org/2000/svg" id="Filter" width="22.32" height="17.469" viewBox="0 0 22.32 17.469">
    <defs>
        <style>
            .cls-1{fill:#3131ff}
        </style>
    </defs>
    <g id="iconfinder_Filter_4737438_4_" transform="rotate(180 11.66 11.734)">
        <path id="Path_6519" d="M34.131 10.97a.97.97 0 0 0-.97-.97H22.97a.97.97 0 0 0 0 1.941h10.19a.97.97 0 0 0 .971-.971z" class="cls-1" transform="translate(-10.81 -2.059)"/>
        <path id="Path_6520" d="M1.97 9.882h2.6a2.911 2.911 0 1 0 0-1.941h-2.6a.97.97 0 1 0 0 1.941zm5.338-1.941a.97.97 0 1 1-.97.97.97.97 0 0 1 .97-.97z" class="cls-1"/>
        <path id="Path_6521" d="M35.216 19.941h-3.567a2.911 2.911 0 1 0 0 1.941h3.566a.97.97 0 0 0 0-1.941zm-6.308 1.941a.97.97 0 1 1 .97-.97.97.97 0 0 1-.97.97z" class="cls-1" transform="translate(-12.866 -6.177)"/>
        <path id="Path_6522" d="M11.19 22H1.97a.97.97 0 1 0 0 1.941h9.22a.97.97 0 0 0 0-1.941z" class="cls-1" transform="translate(0 -8.237)"/>
        <path id="Path_6523" d="M35.219 34H26.97a.97.97 0 1 0 0 1.941h8.249a.97.97 0 1 0 0-1.941z" class="cls-1" transform="translate(-12.869 -14.414)"/>
        <path id="Path_6524" d="M9.249 30a2.911 2.911 0 0 0-2.742 1.941H1.97a.97.97 0 1 0 0 1.941h4.537A2.911 2.911 0 1 0 9.249 30zm0 3.882a.97.97 0 1 1 .97-.97.97.97 0 0 1-.97.97z" class="cls-1" transform="translate(0 -12.355)"/>
    </g>
</svg>
