<svg xmlns="http://www.w3.org/2000/svg" width="21.535" height="13.718" viewBox="0 0 21.535 13.718">
  <g id="livefeeds" transform="translate(-10.584 0)">
    <path id="Path_7184" data-name="Path 7184" d="M94.679,13.521a.98.98,0,0,0,.2-1.372,8.855,8.855,0,0,1,0-10.581A.98.98,0,1,0,93.307.392a10.824,10.824,0,0,0,0,12.934.98.98,0,0,0,1.372.2Z" transform="translate(-80.578 0)" fill="#6ca7fa"/>
    <path id="Path_7185" data-name="Path 7185" d="M361.407,13.521a.98.98,0,0,0,1.372-.2,10.824,10.824,0,0,0,0-12.934.98.98,0,0,0-1.567,1.177,8.854,8.854,0,0,1,0,10.581.98.98,0,0,0,.2,1.372Z" transform="translate(-332.804 0)" fill="#6ca7fa"/>
    <path id="Path_7186" data-name="Path 7186" d="M154.169,39.549a.98.98,0,0,0,.076-1.384,4.889,4.889,0,0,1,0-6.531.98.98,0,1,0-1.46-1.307,6.867,6.867,0,0,0,0,9.146A.98.98,0,0,0,154.169,39.549Z" transform="translate(-136.546 -28.042)" fill="#6ca7fa"/>
    <path id="Path_7187" data-name="Path 7187" d="M308.412,39.549a.98.98,0,0,0,1.384-.076,6.867,6.867,0,0,0,0-9.146.98.98,0,0,0-1.46,1.307,4.889,4.889,0,0,1,0,6.531.98.98,0,0,0,.076,1.384Z" transform="translate(-283.332 -28.042)" fill="#6ca7fa"/>
    <path id="Path_7188" data-name="Path 7188" d="M213.94,65.88A2.939,2.939,0,1,0,211,62.94,2.943,2.943,0,0,0,213.94,65.88Zm0-3.919a.98.98,0,1,1-.98.98A.981.981,0,0,1,213.94,61.961Z" transform="translate(-192.589 -56.082)" fill="#6ca7fa"/>
  </g>
</svg>
