<svg xmlns="http://www.w3.org/2000/svg" width="18" height="18" viewBox="0 0 18 18">
    <defs>
        <style>
            .cls-1{fill:#6ca7fa}
        </style>
    </defs>
    <g id="icons" transform="translate(-2 -2)">
        <g id="exit2" transform="translate(2 2)">
            <path id="Path_12" d="M11.465 9.421a1.7 1.7 0 0 0 1.465-1.855V3.855A1.7 1.7 0 0 0 11.465 2 1.7 1.7 0 0 0 10 3.855v3.711a1.7 1.7 0 0 0 1.465 1.855z" class="cls-1" transform="translate(-2.465 -2)"/>
            <path id="Path_13" d="M17.39 4.858a1.232 1.232 0 0 0-.99-.358 1.381 1.381 0 0 0-1.35 1.344 1.874 1.874 0 0 0 .36.986 6.075 6.075 0 0 1 1.8 4.391 6.3 6.3 0 0 1-12.6 0A6 6 0 0 1 6.5 6.83a1.436 1.436 0 0 0 .45-.986A1.381 1.381 0 0 0 5.6 4.5a1.892 1.892 0 0 0-.99.358A8.912 8.912 0 0 0 2 11.22a9 9 0 0 0 18 0 8.912 8.912 0 0 0-2.61-6.362z" class="cls-1" transform="translate(-2 -2.181)"/>
        </g>
    </g>
</svg>
