<svg xmlns="http://www.w3.org/2000/svg" width="14.43" height="16.487" viewBox="0 0 14.43 16.487">
    <defs>
        <style>
            .cls-1{fill:#6ca7fa}
        </style>
    </defs>
    <g id="_31623" transform="translate(-8.227)">
        <g id="Group_7481" transform="translate(8.227)">
            <path id="Path_6107" d="M22.657 5.455c0-.015-.008-.026-.008-.04L21.341.652A.8.8 0 0 0 20.54 0h-10.2a.8.8 0 0 0-.8.652L8.235 5.415c0 .014-.008.025-.008.04v1.311a1.3 1.3 0 0 0 .348.883l-.341 1.97c0 .014-.008.026-.008.041v1.311a1.3 1.3 0 0 0 .348.883l-.341 1.97c0 .014-.008.026-.008.04v1.311a1.313 1.313 0 0 0 1.312 1.312h11.807a1.313 1.313 0 0 0 1.312-1.312v-1.311c0-.014-.008-.026-.008-.04l-.341-1.97a1.3 1.3 0 0 0 .348-.883V9.66c0-.015-.008-.026-.008-.041l-.341-1.97a1.3 1.3 0 0 0 .348-.883V5.455zM22 15.176a.657.657 0 0 1-.656.656H9.54a.657.657 0 0 1-.656-.656v-1.312a.657.657 0 0 1 .656-.656h11.806a.658.658 0 0 1 .656.656v1.311zm0-4.2a.657.657 0 0 1-.656.656H9.54a.657.657 0 0 1-.656-.656V9.66A.657.657 0 0 1 9.54 9h11.806a.658.658 0 0 1 .654.66v1.311zm0-4.2a.657.657 0 0 1-.656.657H9.54a.658.658 0 0 1-.656-.657V5.455A.658.658 0 0 1 9.54 4.8h11.806a.658.658 0 0 1 .654.655v1.311z" class="cls-1" transform="translate(-8.227)"/>
            <path id="Path_6108" d="M21.484 112.329a.472.472 0 1 1-.472.471.471.471 0 0 1 .472-.471z" class="cls-1" transform="translate(-19.413 -98.281)"/>
            <path id="Path_6109" d="M21.484 78.709a.471.471 0 1 1-.472.471.471.471 0 0 1 .472-.471z" class="cls-1" transform="translate(-19.413 -68.865)"/>
            <path id="Path_6110" d="M21.484 45.086a.471.471 0 1 1-.472.471.472.472 0 0 1 .472-.471z" class="cls-1" transform="translate(-19.413 -39.447)"/>
        </g>
    </g>
</svg>
