<svg xmlns="http://www.w3.org/2000/svg" id="_1150587" width="20.61" height="20.916" viewBox="0 0 20.61 20.916">
    <defs>
        <style>
            .cls-1{fill:#fff}
        </style>
    </defs>
    <path id="Path_6101" d="M51.569 215.368h3.1a.409.409 0 0 0 0-.817h-3.1a.409.409 0 0 0 0 .817zm0 0" class="cls-1" transform="translate(-49.07 -205.786)"/>
    <path id="Path_6102" d="M51.569 263.372h3.37a.409.409 0 1 0 0-.817h-3.37a.409.409 0 1 0 0 .817zm0 0" class="cls-1" transform="translate(-49.07 -251.829)"/>
    <path id="Path_6103" d="M175.326 263.368a.409.409 0 1 0-.289-.12.41.41 0 0 0 .289.12zm0 0" class="cls-1" transform="translate(-167.392 -251.825)"/>
    <path id="Path_6104" d="M193.626 49.19a3.6 3.6 0 1 0-3.6-3.6 3.6 3.6 0 0 0 3.6 3.6zm0-6.373a2.778 2.778 0 1 1-2.778 2.778 2.781 2.781 0 0 1 2.778-2.778zm0 0" class="cls-1" transform="translate(-181.643 -40.284)"/>
    <path id="Path_6105" d="M20.184 11.2l-.519-.494V5.147A2.1 2.1 0 0 0 17.518 3.1h-.5a5.7 5.7 0 0 0-10.153 0H2.147A2.1 2.1 0 0 0 0 5.147v10.294a2.1 2.1 0 0 0 2.147 2.043h5.537v.981a2.1 2.1 0 0 0-2.105 2.042.419.419 0 0 0 .429.409h7.645a.419.419 0 0 0 .429-.409 2.1 2.1 0 0 0-2.1-2.042v-.981h5.54a2.1 2.1 0 0 0 2.147-2.043v-1.965a1.462 1.462 0 0 0 .519-.318 1.34 1.34 0 0 0-.004-1.958zm-2.666-7.279a1.259 1.259 0 0 1 1.288 1.226v4.74l-2.03-1.931a5.075 5.075 0 0 0 .549-4.035zM11.938.817a4.618 4.618 0 0 1 4.723 4.494A4.618 4.618 0 0 1 11.938 9.8a4.618 4.618 0 0 1-4.724-4.489A4.618 4.618 0 0 1 11.938.817zm-9.791 3.1h4.4A5.066 5.066 0 0 0 6.581 6.8H2.626a.409.409 0 1 0 0 .817h4.286a5.618 5.618 0 0 0 5.026 3 5.767 5.767 0 0 0 2.78-.707l3.408 3.242a1.468 1.468 0 0 0 .681.366v.366H.859V5.147a1.259 1.259 0 0 1 1.288-1.226zm11 16.178H6.512a1.288 1.288 0 0 1 1.215-.817h4.21a1.288 1.288 0 0 1 1.214.822zm-2.031-1.634H8.543v-.98h2.576zm6.4-1.8H2.147a1.26 1.26 0 0 1-1.288-1.22v-.735h17.948v.735a1.26 1.26 0 0 1-1.289 1.226zm2.059-4.087a.62.62 0 0 1-.845 0l-3.292-3.129a5.487 5.487 0 0 0 .844-.8l3.295 3.135a.549.549 0 0 1 0 .8zm0 0" class="cls-1"/>
    <path id="Path_6106" d="M268.444 85.825a1.022 1.022 0 0 1 1.021 1.021.409.409 0 1 0 .817 0 1.84 1.84 0 0 0-1.838-1.838.409.409 0 1 0 0 .817zm0 0" class="cls-1" transform="translate(-256.455 -81.535)"/>
</svg>
