<svg xmlns="http://www.w3.org/2000/svg" width="125.379" height="48.606" viewBox="0 0 125.379 48.606">
  <g id="FSCNxt_Logo" transform="translate(-502.449 -879.965)">
    <g id="Group_7388" data-name="Group 7388" transform="translate(508.828 884.571)">
      <text id="sense" transform="translate(76 34)" fill="#4db151" font-size="38" font-family="PTSans-BoldItalic, PT Sans" font-weight="700" font-style="italic"><tspan x="-42.655" y="0">sense</tspan></text>
    </g>
    <g id="Group_8212" data-name="Group 8212" transform="translate(-2738.911 1047.718)">
      <path id="Union_10" data-name="Union 10" d="M17.8,26.314a1.652,1.652,0,0,1-1.394-.7L.3,2.6A1.652,1.652,0,0,1,3.006.7L17.8,21.839,32.6.7a1.652,1.652,0,1,1,2.707,1.9L19.2,25.61a1.65,1.65,0,0,1-1.355.7Z" transform="translate(3241.36 -153.379)" fill="#1f009e"/>
      <g id="_72311" data-name="72311" transform="translate(3248.912 -167.753)">
        <g id="Group_8199" data-name="Group 8199" transform="translate(0 0)">
          <ellipse id="Ellipse_787" data-name="Ellipse 787" cx="2.292" cy="2.292" rx="2.292" ry="2.292" transform="translate(7.812 11.458)" fill="#1f009e"/>
          <path id="Path_6525" data-name="Path 6525" d="M154.728,294.43a6.127,6.127,0,0,0-4.975,2.562,1.018,1.018,0,1,0,1.657,1.184,4.074,4.074,0,0,1,6.636,0,1.018,1.018,0,1,0,1.658-1.184A6.127,6.127,0,0,0,154.728,294.43Z" transform="translate(-144.625 -286.792)" fill="#1f009e"/>
          <path id="Path_6526" data-name="Path 6526" d="M82,178.758a9.946,9.946,0,0,0-7.387,3.3,1.018,1.018,0,1,0,1.515,1.361,7.892,7.892,0,0,1,11.745,0,1.018,1.018,0,1,0,1.515-1.361A9.947,9.947,0,0,0,82,178.758Z" transform="translate(-71.895 -174.939)" fill="#1f009e"/>
          <path id="Path_6527" data-name="Path 6527" d="M19.915,67.2a13.746,13.746,0,0,0-19.623,0,1.018,1.018,0,0,0,1.454,1.427,11.709,11.709,0,0,1,16.716,0A1.018,1.018,0,1,0,19.915,67.2Z" transform="translate(0 -63.085)" fill="#1f009e"/>
        </g>
      </g>
    </g>
  </g>
</svg>
