<svg xmlns="http://www.w3.org/2000/svg" width="127.094" height="42" viewBox="0 0 127.094 42">
  <g id="Group_8215" data-name="Group 8215" transform="translate(-277.232 -19.093)">
    <g id="Group_8214" data-name="Group 8214" transform="translate(277.232 27.243)">
      <circle id="Ellipse_788" data-name="Ellipse 788" cx="5" cy="5" r="5" transform="translate(15.094 14.85)" fill="#1f009e"/>
      <path id="Path_6538" data-name="Path 6538" d="M3.4,2.745A4.031,4.031,0,0,1,.125,1.059.67.67,0,1,1,1.215.281,2.688,2.688,0,0,0,3.4,1.405,2.688,2.688,0,0,0,5.58.281a.67.67,0,1,1,1.09.779A4.03,4.03,0,0,1,3.4,2.745Z" transform="matrix(-0.819, 0.574, -0.574, -0.819, 16.391, 11.935)" fill="#1f009e"/>
      <path id="Path_6543" data-name="Path 6543" d="M3.4,0A4.031,4.031,0,0,0,.125,1.686a.67.67,0,1,0,1.09.779,2.68,2.68,0,0,1,4.365,0,.67.67,0,1,0,1.09-.779A4.03,4.03,0,0,0,3.4,0Z" transform="matrix(0.819, 0.574, -0.574, 0.819, 24.845, 9.686)" fill="#1f009e"/>
      <path id="Path_6540" data-name="Path 6540" d="M5.031,3.285A6.543,6.543,0,0,1,.172,1.118a.67.67,0,1,1,1-.9A5.2,5.2,0,0,0,5.031,1.946,5.2,5.2,0,0,0,8.894.222a.67.67,0,1,1,1,.9A6.543,6.543,0,0,1,5.031,3.285Z" transform="matrix(-0.819, 0.574, -0.574, -0.819, 14.964, 7.749)" fill="#1f009e"/>
      <path id="Path_6544" data-name="Path 6544" d="M5.031,0A6.543,6.543,0,0,0,.172,2.168a.67.67,0,1,0,1,.9,5.191,5.191,0,0,1,7.726,0,.67.67,0,0,0,1-.9A6.543,6.543,0,0,0,5.031,0Z" transform="matrix(0.819, 0.574, -0.574, 0.819, 26.581, 5.058)" fill="#1f009e"/>
      <path id="Path_6542" data-name="Path 6542" d="M13.1,1.139A8.977,8.977,0,0,1,6.646,3.849,8.977,8.977,0,0,1,.192,1.139.67.67,0,0,1,1.148.2a7.647,7.647,0,0,0,5.5,2.308A7.647,7.647,0,0,0,12.144.2a.67.67,0,1,1,.956.939Z" transform="matrix(-0.819, 0.574, -0.574, -0.819, 13.096, 3.153)" fill="#1f009e"/>
      <path id="Path_6545" data-name="Path 6545" d="M13.1,2.709a9.042,9.042,0,0,0-12.908,0,.67.67,0,0,0,.956.939,7.7,7.7,0,0,1,11,0,.67.67,0,0,0,.956-.939Z" transform="matrix(0.819, 0.574, -0.574, 0.819, 28.773, 0)" fill="#1f009e"/>
    </g>
    <text id="sense" transform="translate(363.325 51.093)" fill="#4db151" font-size="36" font-family="PTSans-BoldItalic, PT Sans" font-weight="700" font-style="italic"><tspan x="-40.41" y="0">sense</tspan></text>
  </g>
</svg>
