<svg xmlns="http://www.w3.org/2000/svg" width="126.046" height="39.473" viewBox="0 0 126.046 39.473">
  <g id="Group_8226" data-name="Group 8226" transform="translate(-154.428 -100.646)">
    <g id="Group_8221" data-name="Group 8221" transform="translate(151.829 100.004)">
      <circle id="Ellipse_788" data-name="Ellipse 788" cx="10.26" cy="10.26" r="10.26" transform="translate(20.769 15.555)" fill="#1f009e"/>
      <g id="Group_8219" data-name="Group 8219" transform="matrix(0.766, 0.643, -0.643, 0.766, 42.178, 0)">
        <g id="Group_8205" data-name="Group 8205" transform="matrix(0.985, 0.174, -0.174, 0.985, 0.999, 0)">
          <g id="Group_8204" data-name="Group 8204" transform="translate(0 0)">
            <path id="Path_6533" data-name="Path 6533" d="M23.114,4.762a16.2,16.2,0,0,0-22.944,0,.58.58,0,1,0,.821.819,15.04,15.04,0,0,1,21.27-.032l.032.032a.58.58,0,0,0,.821-.819Z" fill="#1f009e"/>
          </g>
        </g>
        <g id="Group_8207" data-name="Group 8207" transform="matrix(0.985, 0.174, -0.174, 0.985, 4.285, 5.9)">
          <g id="Group_8206" data-name="Group 8206" transform="translate(0 0)">
            <path id="Path_6534" data-name="Path 6534" d="M14.618,3A10.225,10.225,0,0,0,.144,3a.512.512,0,0,0,.724.724,9.2,9.2,0,0,1,13.014-.012l.012.012A.512.512,0,0,0,14.618,3Z" fill="#1f009e"/>
          </g>
        </g>
        <g id="Group_8209" data-name="Group 8209" transform="matrix(0.985, 0.174, -0.174, 0.985, 6.991, 11.593)">
          <g id="Group_8208" data-name="Group 8208" transform="translate(0 0)">
            <path id="Path_6535" data-name="Path 6535" d="M7.334,1.5l-.01-.01a5.09,5.09,0,0,0-7.193,0A.424.424,0,1,0,.718,2.1l.01-.01a4.242,4.242,0,0,1,6,0A.424.424,0,0,0,7.334,1.5Z" transform="translate(0 0)" fill="#1f009e"/>
          </g>
        </g>
      </g>
      <g id="Group_8222" data-name="Group 8222" transform="translate(28.017 11.545) rotate(140)">
        <g id="Group_8205-2" data-name="Group 8205" transform="matrix(0.985, -0.174, 0.174, 0.985, 0, 9.408)">
          <g id="Group_8204-2" data-name="Group 8204" transform="translate(0 0)">
            <path id="Path_6533-2" data-name="Path 6533" d="M23.114.989A16.1,16.1,0,0,1,11.641,5.751,16.1,16.1,0,0,1,.169.99.58.58,0,0,1,.99.171,15.04,15.04,0,0,0,22.261.2L22.293.17a.58.58,0,1,1,.821.819Z" fill="#1f009e"/>
          </g>
        </g>
        <g id="Group_8207-2" data-name="Group 8207" transform="matrix(0.985, -0.174, 0.174, 0.985, 3.613, 5.361)">
          <g id="Group_8206-2" data-name="Group 8206" transform="translate(0 0)">
            <path id="Path_6534-2" data-name="Path 6534" d="M14.617.868a10.168,10.168,0,0,1-7.237,3,10.168,10.168,0,0,1-7.237-3A.512.512,0,0,1,.868.144,9.2,9.2,0,0,0,13.881.156l.012-.012a.512.512,0,0,1,.724.724Z" fill="#1f009e"/>
          </g>
        </g>
        <g id="Group_8209-2" data-name="Group 8209" transform="matrix(0.985, -0.174, 0.174, 0.985, 6.606, 1.294)">
          <g id="Group_8208-2" data-name="Group 8208" transform="translate(0 0)">
            <path id="Path_6535-2" data-name="Path 6535" d="M7.333.719l-.01.01a5.069,5.069,0,0,1-3.6,1.488A5.068,5.068,0,0,1,.13.73.424.424,0,1,1,.718.118l.01.01a4.242,4.242,0,0,0,6,0,.424.424,0,0,1,.608.591Z" transform="translate(0 0)" fill="#1f009e"/>
          </g>
        </g>
      </g>
      <g id="Union_11" data-name="Union 11" transform="translate(22.387 18.451)" fill="none" stroke-linecap="round" stroke-linejoin="round">
        <path d="M17.1,1.711,9.406,10.26ZM0,0,9.406,10.26Z" stroke="none"/>
        <path d="M 3.814697265625e-06 -3.814697265625e-06 L 9.406373977661133 10.25991535186768 L 3.814697265625e-06 -3.814697265625e-06 M 17.09994506835938 1.711155891418457 L 9.406373977661133 10.25991535186768 L 17.09994506835938 1.711155891418457 M -0.000156402587890625 -0.6000080108642578 C 0.1621608734130859 -0.6000080108642578 0.3239307403564453 -0.5345458984375 0.4422645568847656 -0.4054746627807617 L 9.40225887298584 9.367565155029297 L 16.65396499633789 1.309785842895508 C 16.77243041992188 1.178152084350586 16.93597412109375 1.111149787902832 17.10014152526855 1.111149787902832 C 17.2431583404541 1.111149787902832 17.38663864135742 1.161967277526855 17.50131416320801 1.265175819396973 C 17.74762535095215 1.486845970153809 17.76760482788086 1.866215705871582 17.54592514038086 2.112525939941406 L 9.857755661010742 10.65528392791748 C 9.849263191223145 10.66495609283447 9.840404510498047 10.67441749572754 9.831191062927246 10.68364143371582 C 9.783578872680664 10.73145961761475 9.72966480255127 10.76964664459229 9.67198371887207 10.79809474945068 C 9.589479446411133 10.83885765075684 9.499762535095215 10.8593635559082 9.410164833068848 10.85990905761719 C 9.410089492797852 10.85990905761719 9.410045623779297 10.8599100112915 9.409970283508301 10.8599100112915 C 9.409894943237305 10.85991096496582 9.409841537475586 10.85991096496582 9.409767150878906 10.85991096496582 C 9.408567428588867 10.85991859436035 9.407378196716309 10.85992240905762 9.40617847442627 10.85992240905762 C 9.318657875061035 10.85992240905762 9.230960845947266 10.84088611602783 9.149789810180664 10.80246257781982 C 9.089215278625488 10.77384281158447 9.03257942199707 10.73458862304688 8.982738494873047 10.68482208251953 C 8.974530220031738 10.6766529083252 8.966615676879883 10.66830825805664 8.958975791931152 10.65978050231934 L -0.4422550201416016 0.4054660797119141 C -0.6661949157714844 0.1612062454223633 -0.6497154235839844 -0.2183341979980469 -0.4054660797119141 -0.4422645568847656 C -0.290283203125 -0.5478649139404297 -0.1450004577636719 -0.6000080108642578 -0.000156402587890625 -0.6000080108642578 Z" stroke="none" fill="#fff"/>
      </g>
    </g>
    <text id="sense" transform="translate(246.474 132.119)" fill="#4db151" font-size="30" font-family="PTSans-BoldItalic, PT Sans" font-weight="700" font-style="italic"><tspan x="-33.675" y="0">sense</tspan></text>
  </g>
</svg>
